STARTFONT 2.1
FONT matty.math2
SIZE 22 72 72
FONTBOUNDINGBOX 20 22 0 -4
STARTPROPERTIES 4
FONT_DESCENT 4
FONT_ASCENT 18
DEFAULT_CHAR 0
COPYRIGHT "Copyright (c) 1993 James Matthew Farrow - All rights reserved."
ENDPROPERTIES
CHARS 114
STARTCHAR ch-0
ENCODING 0
SWIDTH 500 0
DWIDTH 11 0
BBX 11 22 0 -4
BITMAP
000000
000000
000000
000000
008000
010000
010000
02c000
038000
070000
0e0000
780000
c80000
780000
1e0000
230000
218000
40c000
400000
000000
000000
000000
ENDCHAR
STARTCHAR ch-1
ENCODING 1
SWIDTH 500 0
DWIDTH 11 0
BBX 11 22 0 -4
BITMAP
000000
000000
000000
000000
000008
008000
008001
c10008
610000
320000
1e0003
078006
04c00b
0f8000
1c0008
300000
700000
e00000
20000e
000000
000000
000000
ENDCHAR
STARTCHAR ch-2
ENCODING 2
SWIDTH 409 0
DWIDTH 9 0
BBX 9 22 0 -4
BITMAP
000000
000000
000000
000000
000008
000000
000000
000008
3f0000
7f0000
e00001
c00006
c0000b
c00000
e00007
7f0000
3f0000
000000
00000c
000000
000000
000000
ENDCHAR
STARTCHAR ch-3
ENCODING 3
SWIDTH 409 0
DWIDTH 9 0
BBX 9 22 0 -4
BITMAP
000000
000000
000000
000000
000008
000000
000000
000008
fc0000
fe0000
07000f
030006
03000b
030000
070000
fe0000
fc0000
000000
000000
000000
000000
000000
ENDCHAR
STARTCHAR ch-4
ENCODING 4
SWIDTH 409 0
DWIDTH 9 0
BBX 9 22 0 -4
BITMAP
000000
000000
000000
000000
008008
008000
010000
010008
3f0000
7f0000
e4000c
c40006
c8000b
c80000
f00003
7f0000
3f0000
200000
400007
400000
000000
000000
ENDCHAR
STARTCHAR ch-5
ENCODING 5
SWIDTH 409 0
DWIDTH 9 0
BBX 9 22 0 -4
BITMAP
000000
000000
000000
000000
010008
010000
020000
020008
fc0000
fe0000
0f000f
0b0006
13000b
130000
270004
fe0000
fc0000
400000
800000
800000
000000
000000
ENDCHAR
STARTCHAR ch-6
ENCODING 6
SWIDTH 409 0
DWIDTH 9 0
BBX 9 22 0 -4
BITMAP
000000
000000
000000
000000
000008
000000
3f0001
7f0008
e00000
c00000
c0000c
c00006
e0000b
7f0000
3f000b
000000
ff0000
ff0000
000007
000000
000000
000000
ENDCHAR
STARTCHAR ch-7
ENCODING 7
SWIDTH 409 0
DWIDTH 9 0
BBX 9 22 0 -4
BITMAP
00000d
000000
008000
008000
010008
010000
fe0000
fe0008
070004
070000
0b0000
0b0000
170000
fe0000
fc0000
200000
ff0000
ff0000
80000f
800000
000000
000000
ENDCHAR
STARTCHAR ch-8
ENCODING 8
SWIDTH 409 0
DWIDTH 9 0
BBX 9 22 0 -4
BITMAP
000000
000000
008000
008000
010008
010000
3f0001
7f0008
e40000
c40000
c80007
c80006
f0000b
7f0000
3f000b
200000
ff0000
ff0000
80000c
800000
000000
000000
ENDCHAR
STARTCHAR ch-9
ENCODING 9
SWIDTH 409 0
DWIDTH 9 0
BBX 9 22 0 -4
BITMAP
000000
000000
000000
000000
000008
000000
fc0001
fe0008
070000
030000
030004
030006
07000b
fe0000
fc0008
000000
ff0000
ff0000
00000f
000000
000000
000000
ENDCHAR
STARTCHAR ch-10
ENCODING 10
SWIDTH 409 0
DWIDTH 9 0
BBX 9 22 0 -4
BITMAP
000000
000000
000000
000000
000008
000000
3f0000
7f0008
e00000
c00000
c00007
c00006
e0000b
7f0000
3f0003
040000
ff0000
ff0000
10000c
200000
200000
000000
ENDCHAR
STARTCHAR ch-11
ENCODING 11
SWIDTH 409 0
DWIDTH 9 0
BBX 9 22 0 -4
BITMAP
00000d
000000
000000
000000
000008
000000
fc0000
fe0008
070004
030000
030000
030000
070000
fe0000
fe0000
080000
ff0000
ff0000
20000f
400000
400000
000000
ENDCHAR
STARTCHAR ch-12
ENCODING 12
SWIDTH 454 0
DWIDTH 10 0
BBX 10 22 0 -4
BITMAP
000000
000000
000000
000000
000008
000000
000000
000008
c18000
d18000
e18007
ff8006
e1800b
d18000
e38003
7f0000
3e0000
000000
00000e
000000
000000
000000
ENDCHAR
STARTCHAR ch-13
ENCODING 13
SWIDTH 454 0
DWIDTH 10 0
BBX 10 22 0 -4
BITMAP
00000d
000000
000000
000000
000008
000000
000000
000008
c18004
dd8000
ff8001
ff8000
dd8000
c18000
e3800f
7f0000
3e0000
000000
000003
000000
000000
000000
ENDCHAR
STARTCHAR ch-14
ENCODING 14
SWIDTH 454 0
DWIDTH 10 0
BBX 10 22 0 -4
BITMAP
00000d
000000
000000
000000
000008
000000
000000
000008
c18004
c98000
c98001
ff8000
c98000
c98000
e3800f
7f0000
3e0000
000000
000003
000000
000000
000000
ENDCHAR
STARTCHAR ch-15
ENCODING 15
SWIDTH 454 0
DWIDTH 10 0
BBX 10 22 0 -4
BITMAP
000000
000000
000000
000000
000008
000000
000000
000008
ff8000
ff8000
c00001
c00006
c0000b
c00000
c0000f
ff8000
ff8000
000000
000003
000000
000000
000000
ENDCHAR
STARTCHAR ch-16
ENCODING 16
SWIDTH 454 0
DWIDTH 10 0
BBX 10 22 0 -4
BITMAP
000000
000000
000000
000000
000008
000000
000000
000008
ff8000
ff8000
01800f
018006
01800b
018000
018000
ff8000
ff8000
000000
000000
000000
000000
000000
ENDCHAR
STARTCHAR ch-17
ENCODING 17
SWIDTH 454 0
DWIDTH 10 0
BBX 10 22 0 -4
BITMAP
000000
000000
000000
000000
000008
000000
ff8000
ff8008
c00000
c00000
c0000f
c00006
c0000b
ff8000
ff8001
000000
ff8000
ff8000
000001
000000
000000
000000
ENDCHAR
STARTCHAR ch-18
ENCODING 18
SWIDTH 454 0
DWIDTH 10 0
BBX 10 22 0 -4
BITMAP
000000
000000
000000
000000
000008
000000
ff8000
ff8008
018000
018000
018000
018006
01800b
ff8000
ff8000
000000
ff8000
ff8000
00000f
000000
000000
000000
ENDCHAR
STARTCHAR ch-19
ENCODING 19
SWIDTH 454 0
DWIDTH 10 0
BBX 10 22 0 -4
BITMAP
000000
000000
000000
000000
000008
000000
000000
000008
ff8000
ff8000
c18001
c18006
c1800b
c18000
c18001
c18000
c18000
000000
00000f
000000
000000
000000
ENDCHAR
STARTCHAR ch-20
ENCODING 20
SWIDTH 454 0
DWIDTH 10 0
BBX 10 22 0 -4
BITMAP
00000d
000000
000000
000000
000008
000000
000000
000008
c18004
c18000
c1800f
c18000
c18000
c18000
c18001
ff8000
ff8000
000000
000001
000000
000000
000000
ENDCHAR
STARTCHAR ch-21
ENCODING 21
SWIDTH 636 0
DWIDTH 14 0
BBX 14 22 0 -4
BITMAP
000000
000000
000000
000000
000008
000000
0f8000
3fe008
707000
623000
c21801
c21806
dfd80b
c21800
c21801
623000
707000
3fe000
0f8001
000000
000000
000000
ENDCHAR
STARTCHAR ch-22
ENCODING 22
SWIDTH 636 0
DWIDTH 14 0
BBX 14 22 0 -4
BITMAP
00000d
000000
000000
000000
000008
000000
0f8000
3fe008
707004
603000
c01800
c01800
dfd800
c01808
c01802
603000
707000
3fe008
0f8002
000000
000000
000000
ENDCHAR
STARTCHAR ch-23
ENCODING 23
SWIDTH 636 0
DWIDTH 14 0
BBX 14 22 0 -4
BITMAP
000000
000000
000000
000000
000008
000000
0f8000
3fe008
707000
78f000
cd9800
c71806
c7180b
cd9808
d8d800
707000
707000
3fe008
0f8000
000000
000000
000000
ENDCHAR
STARTCHAR ch-24
ENCODING 24
SWIDTH 636 0
DWIDTH 14 0
BBX 14 22 0 -4
BITMAP
000000
000000
000000
000000
000008
000000
0f8000
3fe008
707000
e0f000
c19800
c31806
c6180b
cc1808
d81807
f03000
707000
3fe008
0f8008
000000
000000
000000
ENDCHAR
STARTCHAR ch-25
ENCODING 25
SWIDTH 636 0
DWIDTH 14 0
BBX 14 22 0 -4
BITMAP
000000
000000
000000
000000
000008
000000
0f8000
3fe008
707000
603000
c01800
c71806
c7180b
c71808
c01803
603000
707000
3fe008
0f8008
000000
000000
000000
ENDCHAR
STARTCHAR ch-26
ENCODING 26
SWIDTH 636 0
DWIDTH 14 0
BBX 14 22 0 -4
BITMAP
00000d
000000
000000
000000
000008
000000
0f8000
3fe008
707004
603000
c71800
cd9800
c89800
cd9808
c71807
603000
707000
3fe008
0f8000
000000
000000
000000
ENDCHAR
STARTCHAR ch-27
ENCODING 27
SWIDTH 636 0
DWIDTH 14 0
BBX 14 22 0 -4
BITMAP
00000d
000000
000000
000000
000008
000000
0f8000
3fe008
707004
623000
ca9800
c71800
ddd800
c71808
ca980d
623000
707000
3fe008
0f8007
000000
000000
000000
ENDCHAR
STARTCHAR ch-28
ENCODING 28
SWIDTH 636 0
DWIDTH 14 0
BBX 14 22 0 -4
BITMAP
000000
000000
000000
000000
000008
000000
0f8000
3fe008
707000
603000
c01800
dfd806
c0180b
dfd808
c01807
603000
707000
3fe008
0f800a
000000
000000
000000
ENDCHAR
STARTCHAR ch-29
ENCODING 29
SWIDTH 636 0
DWIDTH 14 0
BBX 14 22 0 -4
BITMAP
00000d
000000
000000
000000
000008
000000
0f8000
3fe008
707004
603000
c01800
dfd800
dfd800
c01808
c0180f
603000
707000
3fe008
0f8000
000000
000000
000000
ENDCHAR
STARTCHAR ch-30
ENCODING 30
SWIDTH 636 0
DWIDTH 14 0
BBX 14 22 0 -4
BITMAP
00000d
000000
000000
000000
000008
000000
fff800
fff808
c01804
c21800
c21800
c21800
dfd800
c21808
c2180f
c21800
c01800
fff808
fff800
000000
000000
000000
ENDCHAR
STARTCHAR ch-31
ENCODING 31
SWIDTH 636 0
DWIDTH 14 0
BBX 14 22 0 -4
BITMAP
000000
000000
000000
000000
000008
000000
fff800
fff808
c01800
c01808
c01800
c01806
dfd80b
c01808
c01802
c01800
c01800
fff808
fff802
000000
000000
000008
ENDCHAR
STARTCHAR ch-32
ENCODING 32
SWIDTH 636 0
DWIDTH 14 0
BBX 14 22 0 -4
BITMAP
000000
000000
000000
000000
000008
000000
fff800
fff808
c01800
c01808
d8d800
cd9806
c7180b
c71808
cd9800
d8d800
c01800
fff808
fff800
000000
000000
000008
ENDCHAR
STARTCHAR ch-33
ENCODING 33
SWIDTH 636 0
DWIDTH 14 0
BBX 14 22 0 -4
BITMAP
00000d
000000
000000
000000
000008
000000
fff800
fff808
c01804
c01808
c01800
c71800
c71800
c71808
c0180d
c01800
c01800
fff808
fff80d
000000
000000
000008
ENDCHAR
STARTCHAR ch-34
ENCODING 34
SWIDTH 500 0
DWIDTH 11 0
BBX 11 22 0 -4
BITMAP
00000d
000000
000000
000000
000008
000000
000000
000008
c00004
c00008
c00000
c00000
ffc000
ffc008
c00007
c00000
c00000
c00008
000000
000000
000000
000008
ENDCHAR
STARTCHAR ch-35
ENCODING 35
SWIDTH 500 0
DWIDTH 11 0
BBX 11 22 0 -4
BITMAP
000000
000000
000000
000000
000008
000000
000000
000008
00c000
00c000
00c000
00c006
ffc00b
ffc000
00c000
00c000
00c000
00c000
000000
000000
000000
000000
ENDCHAR
STARTCHAR ch-36
ENCODING 36
SWIDTH 500 0
DWIDTH 11 0
BBX 11 22 0 -4
BITMAP
00000d
000000
000000
000000
000008
000000
000000
ffc008
ffc004
0c0000
0c0000
0c0000
0c0000
0c0000
0c0000
0c0000
0c0000
0c0000
000000
000000
000000
000000
ENDCHAR
STARTCHAR ch-37
ENCODING 37
SWIDTH 500 0
DWIDTH 11 0
BBX 11 22 0 -4
BITMAP
000000
000000
000000
000000
000008
000000
000000
0c0008
0c0000
0c0000
0c000f
0c0006
0c000b
0c0000
0c000c
0c0000
ffc000
ffc000
00000c
000000
000000
000000
ENDCHAR
STARTCHAR ch-38
ENCODING 38
SWIDTH 318 0
DWIDTH 7 0
BBX 7 22 0 -4
BITMAP
00000d
000000
000000
000000
000008
000000
000000
000008
c00004
c00000
c0000c
c00000
fc0000
fc0000
c0000c
c00000
c00000
c00000
00000c
000000
000000
000000
ENDCHAR
STARTCHAR ch-39
ENCODING 39
SWIDTH 318 0
DWIDTH 7 0
BBX 7 22 0 -4
BITMAP
00000d
000000
000000
000000
000008
000000
000000
000008
c00004
c00000
fc0000
fc0000
c00000
c00000
fc0000
fc0000
c00000
c00000
000000
000000
000000
000000
ENDCHAR
STARTCHAR ch-40
ENCODING 40
SWIDTH 500 0
DWIDTH 11 0
BBX 11 22 0 -4
BITMAP
00000d
000000
000000
000000
000008
000000
000000
000008
c00004
c00000
ffc000
ffc000
c00000
c00000
ffc00c
ffc000
c00000
c00000
00000c
000000
000000
000000
ENDCHAR
STARTCHAR ch-41
ENCODING 41
SWIDTH 590 0
DWIDTH 13 0
BBX 13 22 0 -4
BITMAP
000000
000000
000000
000000
000008
000000
000000
000008
cc0000
cc0000
cc0000
cc0006
cff00b
cff000
cc000f
cc0000
cc0000
cc0000
00000f
000000
000000
000000
ENDCHAR
STARTCHAR ch-42
ENCODING 42
SWIDTH 772 0
DWIDTH 17 0
BBX 17 22 0 -4
BITMAP
000000
000000
000000
000000
000008
000000
000000
000008
ccc000
ccc000
ccc00c
ccc006
ccff0b
ccff00
ccc00c
ccc000
ccc000
ccc000
00000c
000000
000000
000000
ENDCHAR
STARTCHAR ch-43
ENCODING 43
SWIDTH 590 0
DWIDTH 13 0
BBX 13 22 0 -4
BITMAP
00000d
000000
000000
000000
000008
000000
000000
000008
cc0004
cc0000
cff00c
cff000
cc0000
cc0000
cff00c
cff000
cc0000
cc000f
00000c
000000
000000
000000
ENDCHAR
STARTCHAR ch-44
ENCODING 44
SWIDTH 500 0
DWIDTH 11 0
BBX 11 22 0 -4
BITMAP
00000d
000000
000000
000000
000008
000000
004000
004008
c08004
c08000
c1000c
c10000
ffc000
ffc000
c4000f
c40000
c80000
c80000
10000f
100000
000000
000000
ENDCHAR
STARTCHAR ch-45
ENCODING 45
SWIDTH 500 0
DWIDTH 11 0
BBX 11 22 0 -4
BITMAP
00000d
000000
000000
000000
000008
000000
004000
004008
c08004
c08000
ffc000
ffc000
c20000
c20000
ffc001
ffc000
c80000
c80000
100004
100000
000000
000000
ENDCHAR
STARTCHAR ch-46
ENCODING 46
SWIDTH 590 0
DWIDTH 13 0
BBX 13 22 0 -4
BITMAP
000000
000000
000000
000000
000008
000000
002000
002008
cc4000
cc4000
cc8000
cc8006
cff00b
cff000
ce000f
ce0000
cc0000
cc0000
08000f
080000
000000
000000
ENDCHAR
STARTCHAR ch-47
ENCODING 47
SWIDTH 590 0
DWIDTH 13 0
BBX 13 22 0 -4
BITMAP
000000
000000
000000
000000
000008
000000
002000
002008
cc4000
cc4000
cff00c
cff006
cd000b
cd0000
cff00c
cff000
cc0000
cc0000
08000e
080000
000000
000000
ENDCHAR
STARTCHAR ch-48
ENCODING 48
SWIDTH 500 0
DWIDTH 11 0
BBX 11 22 0 -4
BITMAP
000000
000000
000000
000000
000008
000000
038000
04c008
00c000
018000
0f000c
780006
c0000b
780000
0f000f
018000
00c000
04c000
03800f
000000
000000
000000
ENDCHAR
STARTCHAR ch-49
ENCODING 49
SWIDTH 500 0
DWIDTH 11 0
BBX 11 22 0 -4
BITMAP
00000d
000000
000000
000000
000008
000000
700000
c80008
c00004
600000
3c0000
078000
00c000
078000
3c0008
600000
c00000
c80000
70000f
000000
000000
000000
ENDCHAR
STARTCHAR ch-50
ENCODING 50
SWIDTH 454 0
DWIDTH 10 0
BBX 10 22 0 -4
BITMAP
00000d
000000
000000
000000
000008
000000
000000
000008
008004
038000
0d8000
318000
c18000
318000
0d8007
038000
008000
000000
00000c
000000
000000
000000
ENDCHAR
STARTCHAR ch-51
ENCODING 51
SWIDTH 454 0
DWIDTH 10 0
BBX 10 22 0 -4
BITMAP
00000d
000000
000000
000000
000008
000000
000000
000008
800004
e00000
d80000
c60000
c18000
c60000
d80001
e00000
800000
000000
00000d
000000
000000
000000
ENDCHAR
STARTCHAR ch-52
ENCODING 52
SWIDTH 454 0
DWIDTH 10 0
BBX 10 22 0 -4
BITMAP
000000
000000
000000
000000
000008
000000
000000
000008
008000
038000
0d8000
318006
c1800b
318000
0d8006
038000
008000
000000
ff8008
000000
000000
000000
ENDCHAR
STARTCHAR ch-53
ENCODING 53
SWIDTH 454 0
DWIDTH 10 0
BBX 10 22 0 -4
BITMAP
000000
000000
000000
000000
000008
000000
000000
000008
800000
e00000
d80000
c60006
c1800b
c60000
d80001
e00000
800000
000000
ff800d
000000
000000
000000
ENDCHAR
STARTCHAR ch-54
ENCODING 54
SWIDTH 772 0
DWIDTH 17 0
BBX 17 22 0 -4
BITMAP
00000d
000000
000000
000000
000008
000000
000000
000008
000004
000000
000000
600600
900f00
9fff00
900f06
600600
000000
000000
000008
000000
000000
000000
ENDCHAR
STARTCHAR ch-55
ENCODING 55
SWIDTH 772 0
DWIDTH 17 0
BBX 17 22 0 -4
BITMAP
00000d
000000
000000
000000
000008
000000
000000
000008
000004
000000
000000
600600
f00900
fff900
f00900
600600
000000
00000f
000000
000000
000000
000000
ENDCHAR
STARTCHAR ch-56
ENCODING 56
SWIDTH 590 0
DWIDTH 13 0
BBX 13 22 0 -4
BITMAP
000000
000000
000000
000000
000008
000000
000000
000008
000000
000000
000000
006006
00900b
ff9000
009000
006000
000000
000009
000000
000000
000000
000000
ENDCHAR
STARTCHAR ch-57
ENCODING 57
SWIDTH 590 0
DWIDTH 13 0
BBX 13 22 0 -4
BITMAP
000000
000000
000000
000000
000008
000000
060000
060008
060000
060000
000000
f0f006
f0f00b
000000
060000
060000
060000
060000
000000
000000
000000
000000
ENDCHAR
STARTCHAR ch-58
ENCODING 58
SWIDTH 409 0
DWIDTH 9 0
BBX 9 22 0 -4
BITMAP
000000
000000
000000
000000
000008
000000
000000
ff0008
ff0000
180000
180006
180006
18000b
180000
180000
180000
180000
180000
000006
000000
000000
000000
ENDCHAR
STARTCHAR ch-59
ENCODING 59
SWIDTH 454 0
DWIDTH 10 0
BBX 10 22 0 -4
BITMAP
000000
000000
000000
000000
000008
000000
000000
c18008
c18000
630000
63000f
360006
36000b
1c0000
1c0008
080000
000000
ff8000
000008
000000
000000
000000
ENDCHAR
STARTCHAR ch-60
ENCODING 60
SWIDTH 454 0
DWIDTH 10 0
BBX 10 22 0 -4
BITMAP
00000d
000000
000000
000000
000008
ff8000
000000
080008
1c0004
1c0000
360001
360000
630000
630000
c18006
c18000
000000
000000
00000c
000000
000000
000000
ENDCHAR
STARTCHAR ch-61
ENCODING 61
SWIDTH 454 0
DWIDTH 10 0
BBX 10 22 0 -4
BITMAP
000000
000000
000000
000000
000008
ff8000
00000f
c18008
c18000
630000
63000c
360006
36000b
1c0000
1c0006
080000
000000
000000
000001
000000
000000
000000
ENDCHAR
STARTCHAR ch-62
ENCODING 62
SWIDTH 500 0
DWIDTH 11 0
BBX 11 22 0 -4
BITMAP
00000d
000000
000000
000000
000008
000000
00000f
c00008
c00004
c00000
f00001
dc0000
c40000
c60000
c20006
ffc000
ffc000
000000
00000c
000000
000000
000000
ENDCHAR
STARTCHAR ch-63
ENCODING 63
SWIDTH 500 0
DWIDTH 11 0
BBX 11 22 0 -4
BITMAP
000000
000000
000000
000000
000008
000000
000000
004008
00c000
01c000
02c000
04c006
08c00b
10c000
20c00c
7fc000
ffc000
000000
000002
000000
000000
000000
ENDCHAR
STARTCHAR ch-64
ENCODING 64
SWIDTH 636 0
DWIDTH 14 0
BBX 14 22 0 -4
BITMAP
00000d
000000
000000
000000
000008
020000
070000
070008
0d8004
0d8000
18c000
18c000
306000
306000
603004
603000
c01800
c01800
000000
000000
000000
000000
ENDCHAR
STARTCHAR ch-65
ENCODING 65
SWIDTH 636 0
DWIDTH 14 0
BBX 14 22 0 -4
BITMAP
00000d
000000
000000
000000
000008
c01800
c01802
603008
603004
306000
30600d
18c000
18c000
0d8000
0d8008
070000
070000
020000
000000
000000
000000
000008
ENDCHAR
STARTCHAR ch-66
ENCODING 66
SWIDTH 454 0
DWIDTH 10 0
BBX 10 22 0 -4
BITMAP
00000d
000000
000000
000000
000008
1c0000
7f0000
630008
c18004
c18000
c18000
c18000
c18000
c18000
c18008
c18000
c18000
c18000
00000d
000000
000000
000000
ENDCHAR
STARTCHAR ch-67
ENCODING 67
SWIDTH 454 0
DWIDTH 10 0
BBX 10 22 0 -4
BITMAP
000000
000000
000000
000000
000008
c18000
c1800c
c18008
c18000
c18000
c18001
c18006
c1800b
c18000
c18001
630000
7f0000
1c0000
000001
000000
000000
000000
ENDCHAR
STARTCHAR ch-68
ENCODING 68
SWIDTH 363 0
DWIDTH 8 0
BBX 8 22 0 -4
BITMAP
00000d
000000
000000
000000
000008
000000
000001
100008
380004
280000
6c0001
440000
c60000
440000
6c0001
280000
380000
100000
000001
000000
000000
000000
ENDCHAR
STARTCHAR ch-69
ENCODING 69
SWIDTH 181 0
DWIDTH 4 0
BBX 4 22 0 -4
BITMAP
00000d
000000
000000
000000
000008
000000
000000
000008
000004
000000
000008
e00000
e00000
e00000
000004
000000
000000
000000
00000c
000000
000000
000000
ENDCHAR
STARTCHAR ch-70
ENCODING 70
SWIDTH 500 0
DWIDTH 11 0
BBX 11 22 0 -4
BITMAP
000000
000000
000000
000000
000008
000000
000000
040008
040000
0e0000
0e0000
7fc006
3f800b
1f0000
3f8000
3b8000
60c000
000000
000000
000000
000000
000000
ENDCHAR
STARTCHAR ch-71
ENCODING 71
SWIDTH 409 0
DWIDTH 9 0
BBX 9 22 0 -4
BITMAP
000000
000000
000000
000000
000008
000000
000000
000008
990000
420000
240004
180006
ff000b
180000
24000f
420000
990000
000000
00000f
000000
000000
000000
ENDCHAR
STARTCHAR ch-72
ENCODING 72
SWIDTH 545 0
DWIDTH 12 0
BBX 12 22 0 -4
BITMAP
00000d
000000
000000
000000
000008
000000
000000
802008
c06004
e0e000
d16009
ca6000
c46000
ca6000
d16008
e0e000
c06000
802000
000004
000000
000000
000000
ENDCHAR
STARTCHAR ch-73
ENCODING 73
SWIDTH 500 0
DWIDTH 11 0
BBX 11 22 0 -4
BITMAP
00000d
000000
000000
000000
000008
000000
000000
800008
c04004
e08000
d10000
ca0000
c40000
ca0000
d1000a
e08000
c04000
800000
000001
000000
000000
000000
ENDCHAR
STARTCHAR ch-74
ENCODING 74
SWIDTH 500 0
DWIDTH 11 0
BBX 11 22 0 -4
BITMAP
00000d
000000
000000
000000
000008
000000
000000
004008
80c004
41c000
22c000
14c000
08c000
14c000
22c00a
41c000
80c000
004000
000001
000000
000000
000000
ENDCHAR
STARTCHAR ch-75
ENCODING 75
SWIDTH 454 0
DWIDTH 10 0
BBX 10 22 0 -4
BITMAP
000000
000000
000000
000000
000008
000000
000000
000008
800000
400000
200000
100006
08000b
140000
220004
410000
808000
000000
000002
000000
000000
000000
ENDCHAR
STARTCHAR ch-76
ENCODING 76
SWIDTH 454 0
DWIDTH 10 0
BBX 10 22 0 -4
BITMAP
000000
000000
000000
000000
000008
000000
000000
000008
008000
010000
020000
040006
08000b
140000
220000
410000
808000
000000
000002
000000
000000
000000
ENDCHAR
STARTCHAR ch-77
ENCODING 77
SWIDTH 454 0
DWIDTH 10 0
BBX 10 22 0 -4
BITMAP
00000d
000000
000000
000000
000008
000000
000000
000008
ff8004
ff8000
000000
870000
8d8000
d88000
708004
000000
000000
000000
000002
000000
000000
000000
ENDCHAR
STARTCHAR ch-78
ENCODING 78
SWIDTH 454 0
DWIDTH 10 0
BBX 10 22 0 -4
BITMAP
00000d
000000
000000
000000
000008
000000
000000
c18008
220004
360000
1c000f
1c0000
080000
080000
080007
000000
000000
000000
000000
000000
000000
000000
ENDCHAR
STARTCHAR ch-79
ENCODING 79
SWIDTH 454 0
DWIDTH 10 0
BBX 10 22 0 -4
BITMAP
000000
000000
000000
000000
000008
000000
000000
080008
080000
080000
1c0002
1c0006
36000b
220000
c1800c
000000
000000
000000
000008
000000
000000
000000
ENDCHAR
STARTCHAR ch-80
ENCODING 80
SWIDTH 409 0
DWIDTH 9 0
BBX 9 22 0 -4
BITMAP
00000d
000000
000000
000000
000008
000000
000000
000008
3f0004
600000
df0008
a00000
a00000
a00000
df000c
600000
3f0000
000000
000001
000000
000000
000000
ENDCHAR
STARTCHAR ch-81
ENCODING 81
SWIDTH 409 0
DWIDTH 9 0
BBX 9 22 0 -4
BITMAP
000000
000000
000000
000000
000008
000000
000000
000008
fc0000
060000
fb000f
050006
05000b
050000
fb0000
060000
fc0000
000000
00000f
000000
000000
000000
ENDCHAR
STARTCHAR ch-82
ENCODING 82
SWIDTH 454 0
DWIDTH 10 0
BBX 10 22 0 -4
BITMAP
000000
000000
000000
000000
000008
000000
000000
000008
3e0000
630000
dd800c
a28006
a2800b
a28000
a28005
a28000
a28000
000000
00000b
000000
000000
000000
ENDCHAR
STARTCHAR ch-83
ENCODING 83
SWIDTH 454 0
DWIDTH 10 0
BBX 10 22 0 -4
BITMAP
000000
000000
000000
000000
000008
000000
000000
000008
a28000
a28000
a2800e
a28006
a2800b
a28000
dd8002
630000
3e0000
000000
000002
000000
000000
000000
ENDCHAR
STARTCHAR ch-84
ENCODING 84
SWIDTH 454 0
DWIDTH 10 0
BBX 10 22 0 -4
BITMAP
000000
000000
000000
000000
000008
000000
000000
080008
080000
080000
3e0002
6b0006
c9800b
888000
888002
888000
888000
000000
00000d
000000
000000
000000
ENDCHAR
STARTCHAR ch-85
ENCODING 85
SWIDTH 545 0
DWIDTH 12 0
BBX 12 22 0 -4
BITMAP
000000
000000
000000
000000
000008
000000
330000
330008
330000
330000
ffc008
ffc006
33000b
ffc000
ffc00b
330000
330000
330000
330008
000000
000000
000000
ENDCHAR
STARTCHAR ch-86
ENCODING 86
SWIDTH 454 0
DWIDTH 10 0
BBX 10 22 0 -4
BITMAP
00000d
000000
000000
000000
000008
000000
000000
018008
070004
1c0000
700003
c30000
c30000
700000
1c000f
070000
018000
000000
00000f
000000
000000
000000
ENDCHAR
STARTCHAR ch-87
ENCODING 87
SWIDTH 454 0
DWIDTH 10 0
BBX 10 22 0 -4
BITMAP
000000
000000
000000
000000
000008
000000
000000
c00008
700000
1c0000
070007
618006
61800b
070000
1c0003
700000
c00000
000000
00000c
000000
000000
000000
ENDCHAR
STARTCHAR ch-88
ENCODING 88
SWIDTH 909 0
DWIDTH 20 0
BBX 20 22 0 -4
BITMAP
000000
000000
000000
000000
000008
000000
000000
018c68
0739c0
1ce700
739c00
c63006
c6300b
739c00
1ce701
0739c0
018c60
000000
00000c
000000
000000
000000
ENDCHAR
STARTCHAR ch-89
ENCODING 89
SWIDTH 909 0
DWIDTH 20 0
BBX 20 22 0 -4
BITMAP
00000d
000000
000000
000000
000008
000000
000000
c63008
739c04
1ce70c
0739c7
018c60
018c60
0739cc
1ce706
739c00
c63000
00000c
00000c
000000
000000
00000c
ENDCHAR
STARTCHAR ch-90
ENCODING 90
SWIDTH 409 0
DWIDTH 9 0
BBX 9 22 0 -4
BITMAP
00000d
000000
000000
000000
000008
000000
0f0000
780008
c00004
780000
0f0003
000000
ff0000
000009
f00001
1e0000
030000
1e0009
f0000c
000000
000000
000000
ENDCHAR
STARTCHAR ch-91
ENCODING 91
SWIDTH 409 0
DWIDTH 9 0
BBX 9 22 0 -4
BITMAP
00000d
000000
000000
000000
000008
000000
f00000
1e0008
030004
1e0000
f00000
000000
ff0000
000000
0f0000
780000
c00000
780000
0f0000
000000
000000
000000
ENDCHAR
STARTCHAR ch-92
ENCODING 92
SWIDTH 454 0
DWIDTH 10 0
BBX 10 22 0 -4
BITMAP
000000
000000
000000
000000
000008
018000
070000
1c0008
718000
c70000
1c0003
700006
c0000b
c00000
700000
1c0000
070000
018000
00000f
000000
000000
000000
ENDCHAR
STARTCHAR ch-93
ENCODING 93
SWIDTH 454 0
DWIDTH 10 0
BBX 10 22 0 -4
BITMAP
00000d
000000
000000
000000
000008
c00000
700001
1c0008
c70004
718000
1c0001
070000
018000
018000
070000
1c0000
700000
c00000
000000
000000
000000
000000
ENDCHAR
STARTCHAR ch-94
ENCODING 94
SWIDTH 500 0
DWIDTH 11 0
BBX 11 22 0 -4
BITMAP
000000
000000
000000
000000
000008
018000
030000
060008
0cc000
398000
e30007
0e0006
78000b
c00000
780007
0e0000
030000
018000
00c007
000000
000000
000000
ENDCHAR
STARTCHAR ch-95
ENCODING 95
SWIDTH 500 0
DWIDTH 11 0
BBX 11 22 0 -4
BITMAP
00000d
000000
000000
000000
000008
600000
300001
180008
cc0004
670000
31c00c
1c0000
078000
00c000
07800e
1c0000
300000
600000
c00008
000000
000000
000000
ENDCHAR
STARTCHAR ch-96
ENCODING 96
SWIDTH 500 0
DWIDTH 11 0
BBX 11 22 0 -4
BITMAP
000000
000000
000000
040000
040008
058000
070000
060008
0cc000
3d8000
e7000c
0e0006
7c000b
c40000
7c000c
0e0000
070000
058000
04c007
040000
000000
000000
ENDCHAR
STARTCHAR ch-97
ENCODING 97
SWIDTH 500 0
DWIDTH 11 0
BBX 11 22 0 -4
BITMAP
00000d
000000
000000
000000
080008
680000
380005
180008
cc0004
6f0000
39c00c
1c0000
0f8000
08c000
0f800e
1c0000
380000
680000
c8000c
080000
000000
000000
ENDCHAR
STARTCHAR ch-98
ENCODING 98
SWIDTH 454 0
DWIDTH 10 0
BBX 10 22 0 -4
BITMAP
00000d
000000
008000
008000
010008
010000
ff8008
ff8008
c40004
c40000
c8000c
c80000
d00000
ff8000
ff800c
200000
ff8000
ff8000
80000f
800000
000000
000000
ENDCHAR
STARTCHAR ch-99
ENCODING 99
SWIDTH 454 0
DWIDTH 10 0
BBX 10 22 0 -4
BITMAP
00000d
000000
008000
008000
010008
010000
ff8001
ff8008
058004
058000
098004
098000
118000
ff8000
ff8008
200000
ff8000
ff8000
80000f
800000
000000
000000
ENDCHAR
STARTCHAR ch-100
ENCODING 100
SWIDTH 454 0
DWIDTH 10 0
BBX 10 22 0 -4
BITMAP
000000
000000
000000
000000
000008
000000
ff8001
ff8008
c00000
c00000
c00005
c00006
c0000b
ff8000
ff8009
040000
ff8000
ff8000
10000f
200000
000000
000000
ENDCHAR
STARTCHAR ch-101
ENCODING 101
SWIDTH 454 0
DWIDTH 10 0
BBX 10 22 0 -4
BITMAP
000000
000000
000000
000000
000008
000000
ff8000
ff8008
018000
018000
018000
018006
01800b
ff8000
ff8000
040000
ff8000
ff8000
10000f
200000
000000
000000
ENDCHAR
STARTCHAR ch-102
ENCODING 102
SWIDTH 454 0
DWIDTH 10 0
BBX 10 22 0 -4
BITMAP
00000d
000000
000000
000000
018008
070000
1c0000
700008
c00004
c00000
700001
1c0000
070000
078000
740001
d88000
8d8000
970000
10000f
000000
000000
000000
ENDCHAR
STARTCHAR ch-103
ENCODING 103
SWIDTH 454 0
DWIDTH 10 0
BBX 10 22 0 -4
BITMAP
000000
000000
000000
000000
c00008
700000
1c0007
070008
018000
018000
070000
1c0006
70000b
c40000
74800c
d88000
8d8000
970000
100004
000000
000000
000000
ENDCHAR
STARTCHAR ch-104
ENCODING 104
SWIDTH 500 0
DWIDTH 11 0
BBX 11 22 0 -4
BITMAP
00000d
000000
000000
000000
00c008
018000
030000
0e0008
780004
c00000
780001
0e0000
030000
058000
74c00c
d88000
8d8000
970000
100004
000000
000000
000000
ENDCHAR
STARTCHAR ch-105
ENCODING 105
SWIDTH 500 0
DWIDTH 11 0
BBX 11 22 0 -4
BITMAP
000000
000000
000000
000000
c00008
600000
300001
1c0008
078000
00c000
078008
1c0006
30000b
640000
f4800e
d88000
8d8000
970000
100004
000000
000000
000000
ENDCHAR
STARTCHAR ch-106
ENCODING 106
SWIDTH 454 0
DWIDTH 10 0
BBX 10 22 0 -4
BITMAP
000000
000000
000000
000000
000008
010000
010000
020008
028000
078000
0d8007
398006
c9800b
318000
1d800c
238000
208000
400000
400004
000000
000000
000000
ENDCHAR
STARTCHAR ch-107
ENCODING 107
SWIDTH 454 0
DWIDTH 10 0
BBX 10 22 0 -4
BITMAP
000000
000000
000000
000000
000008
010000
010001
020008
820000
e40000
dc0002
ce0006
c9800b
d60000
d80009
e00000
a00000
400000
40000d
000000
000000
000000
ENDCHAR
STARTCHAR ch-108
ENCODING 108
SWIDTH 454 0
DWIDTH 10 0
BBX 10 22 0 -4
BITMAP
00000d
000000
000000
000000
000008
010000
010001
020008
028004
078000
0d8002
398000
c98000
318000
1d800e
238000
208000
400000
ff8008
000000
000000
000000
ENDCHAR
STARTCHAR ch-109
ENCODING 109
SWIDTH 454 0
DWIDTH 10 0
BBX 10 22 0 -4
BITMAP
00000d
000000
000000
000000
000008
010000
010001
020008
820004
e40000
dc0002
ce0000
c98000
d60000
d80009
e00000
a00000
400000
ff800d
000000
000000
000000
ENDCHAR
STARTCHAR ch-110
ENCODING 110
SWIDTH 181 0
DWIDTH 4 0
BBX 4 22 0 -4
BITMAP
00000d
000000
000000
000000
000008
000000
c00001
c00008
000004
000000
c00002
c00000
000000
000000
c0000e
c00000
000000
000000
000008
000000
000000
000000
ENDCHAR
STARTCHAR ch-111
ENCODING 111
SWIDTH 545 0
DWIDTH 12 0
BBX 12 22 0 -4
BITMAP
00000d
000000
000000
000000
000008
000000
000000
000008
000004
000000
ccc000
ccc000
000000
000000
000000
000000
000000
000000
000000
000000
000000
000000
ENDCHAR
STARTCHAR ch-112
ENCODING 112
SWIDTH 545 0
DWIDTH 12 0
BBX 12 22 0 -4
BITMAP
00000d
000000
000000
000000
000008
000000
00c000
00c008
000004
000000
0c0000
0c0000
000000
000000
c0000c
c00000
000000
000000
000000
000000
000000
000000
ENDCHAR
STARTCHAR ch-113
ENCODING 113
SWIDTH 545 0
DWIDTH 12 0
BBX 12 22 0 -4
BITMAP
00000d
000000
000000
000000
000008
000000
c00000
c00008
000004
000000
0c0000
0c0000
000000
000000
00c00c
00c000
000000
000000
000000
000000
000000
000000
ENDCHAR
ENDFONT
